<svg width="48" height="48" viewBox="0 0 48 48" fill="none" xmlns="http://www.w3.org/2000/svg">
<circle cx="24" cy="24" r="24" fill="#F2DBDC"/>
<path d="M24.52 13.5H23.52C22.69 13.5 22.02 14.17 22.02 15V16C22.02 16.83 22.69 17.5 23.52 17.5H24.52C25.35 17.5 26.02 16.83 26.02 16V15C26.02 14.17 25.35 13.5 24.52 13.5Z" fill="#DB3042"/>
<path d="M16.27 22.6699H15.27C14.44 22.6699 13.77 23.3399 13.77 24.1699V25.1699C13.77 25.9999 14.44 26.6699 15.27 26.6699H16.27C17.1 26.6699 17.77 25.9999 17.77 25.1699V24.1699C17.77 23.3399 17.09 22.6699 16.27 22.6699Z" fill="#DB3042"/>
<path d="M32.73 22.6699H31.73C30.9 22.6699 30.23 23.3399 30.23 24.1699V25.1699C30.23 25.9999 30.9 26.6699 31.73 26.6699H32.73C33.56 26.6699 34.23 25.9999 34.23 25.1699V24.1699C34.23 23.3399 33.56 22.6699 32.73 22.6699Z" fill="#DB3042"/>
<path d="M15.75 23.9201C15.34 23.9201 15 23.5801 15 23.1701C15 18.9001 18.2 15.3101 22.44 14.8101C22.84 14.7701 23.22 15.0601 23.27 15.4701C23.32 15.8801 23.02 16.2501 22.61 16.3001C19.13 16.7101 16.5 19.6601 16.5 23.1701C16.5 23.5801 16.16 23.9201 15.75 23.9201Z" fill="#DB3042"/>
<path d="M32.25 23.92C31.84 23.92 31.5 23.58 31.5 23.17C31.5 19.68 28.89 16.73 25.43 16.31C25.02 16.26 24.73 15.89 24.78 15.48C24.83 15.07 25.21 14.7801 25.62 14.8301C29.83 15.3401 33.01 18.93 33.01 23.18C33 23.58 32.67 23.92 32.25 23.92Z" fill="#DB3042"/>
<path d="M25.2901 34.0099H22.7201C21.8001 34.0099 21.1201 33.2698 21.2901 32.4698L21.7101 30.6199H26.3001L26.7201 32.4698C26.9101 33.3198 26.2701 34.0099 25.2901 34.0099Z" fill="#DB3042"/>
<path opacity="0.4" d="M28.0701 29.0499L26.3001 30.6199H21.7101L19.9401 29.0499C18.9101 28.2099 18.9101 27.5599 19.6901 26.5699L22.81 22.6299C23.03 22.3599 23.2801 22.1699 23.5501 22.0799C23.8401 21.9799 24.16 21.9799 24.45 22.0799C24.72 22.1799 24.9701 22.3599 25.1901 22.6299L28.31 26.5699C29.09 27.5599 29.0601 28.1799 28.0701 29.0499Z" fill="#DB3042"/>
</svg>
