<svg width="48" height="48" viewBox="0 0 48 48" fill="none" xmlns="http://www.w3.org/2000/svg">
<circle cx="24" cy="24" r="24" fill="#F2DBDC"/>
<path d="M19.24 14H17.34C15.15 14 14 15.15 14 17.33V19.23C14 21.41 15.15 22.56 17.33 22.56H19.23C21.41 22.56 22.56 21.41 22.56 19.23V17.33C22.57 15.15 21.42 14 19.24 14Z" fill="#DB3042"/>
<path opacity="0.4" d="M30.6699 14H28.7699C26.5899 14 25.4399 15.15 25.4399 17.33V19.23C25.4399 21.41 26.5899 22.56 28.7699 22.56H30.6699C32.8499 22.56 33.9999 21.41 33.9999 19.23V17.33C33.9999 15.15 32.8499 14 30.6699 14Z" fill="#DB3042"/>
<path d="M30.6699 25.4301H28.7699C26.5899 25.4301 25.4399 26.5801 25.4399 28.7601V30.6601C25.4399 32.8401 26.5899 33.9901 28.7699 33.9901H30.6699C32.8499 33.9901 33.9999 32.8401 33.9999 30.6601V28.7601C33.9999 26.5801 32.8499 25.4301 30.6699 25.4301Z" fill="#DB3042"/>
<path opacity="0.4" d="M19.24 25.4301H17.34C15.15 25.4301 14 26.5801 14 28.7601V30.6601C14 32.8501 15.15 34.0001 17.33 34.0001H19.23C21.41 34.0001 22.56 32.8501 22.56 30.6701V28.7701C22.57 26.5801 21.42 25.4301 19.24 25.4301Z" fill="#DB3042"/>
</svg>
