<svg width="48" height="48" viewBox="0 0 48 48" fill="none" xmlns="http://www.w3.org/2000/svg">
<circle cx="24" cy="24" r="24" fill="#F2DBDC"/>
<path d="M34 34H14C13.59 34 13.25 33.66 13.25 33.25C13.25 32.84 13.59 32.5 14 32.5H34C34.41 32.5 34.75 32.84 34.75 33.25C34.75 33.66 34.41 34 34 34Z" fill="#DB3042"/>
<path d="M21.75 16V34H26.25V16C26.25 14.9 25.8 14 24.45 14H23.55C22.2 14 21.75 14.9 21.75 16Z" fill="#DB3042"/>
<path opacity="0.4" d="M15 22V34H19V22C19 20.9 18.6 20 17.4 20H16.6C15.4 20 15 20.9 15 22Z" fill="#DB3042"/>
<path opacity="0.4" d="M29 27V34H33V27C33 25.9 32.6 25 31.4 25H30.6C29.4 25 29 25.9 29 27Z" fill="#DB3042"/>
</svg>
