<svg width="48" height="48" viewBox="0 0 48 48" fill="none" xmlns="http://www.w3.org/2000/svg">
<circle cx="24" cy="24" r="24" fill="#F2DBDC"/>
<path opacity="0.4" d="M29.53 19.77C29.46 19.76 29.39 19.76 29.32 19.77C27.77 19.72 26.54 18.45 26.54 16.89C26.54 15.3 27.83 14 29.43 14C31.02 14 32.32 15.29 32.32 16.89C32.31 18.45 31.08 19.72 29.53 19.77Z" fill="#DB3042"/>
<path opacity="0.4" d="M32.7901 26.7C31.6701 27.45 30.1001 27.73 28.6501 27.54C29.0301 26.72 29.2301 25.81 29.2401 24.85C29.2401 23.85 29.0201 22.9 28.6001 22.07C30.0801 21.87 31.6501 22.15 32.7801 22.9C34.3601 23.94 34.3601 25.65 32.7901 26.7Z" fill="#DB3042"/>
<path opacity="0.4" d="M18.4399 19.77C18.5099 19.76 18.5799 19.76 18.6499 19.77C20.1999 19.72 21.4299 18.45 21.4299 16.89C21.4299 15.3 20.1399 14 18.5399 14C16.9499 14 15.6499 15.29 15.6499 16.89C15.6599 18.45 16.8899 19.72 18.4399 19.77Z" fill="#DB3042"/>
<path opacity="0.4" d="M18.5501 24.85C18.5501 25.82 18.7601 26.74 19.1401 27.57C17.7301 27.72 16.2601 27.42 15.1801 26.71C13.6001 25.66 13.6001 23.95 15.1801 22.9C16.2501 22.18 17.7601 21.89 19.1801 22.05C18.7701 22.89 18.5501 23.84 18.5501 24.85Z" fill="#DB3042"/>
<path d="M24.12 27.87C24.04 27.86 23.9501 27.86 23.8601 27.87C22.0201 27.81 20.55 26.3 20.55 24.44C20.55 22.54 22.0801 21 23.9901 21C25.8901 21 27.43 22.54 27.43 24.44C27.43 26.3 25.97 27.81 24.12 27.87Z" fill="#DB3042"/>
<path d="M20.87 29.94C19.36 30.95 19.36 32.61 20.87 33.61C22.59 34.76 25.4101 34.76 27.1301 33.61C28.6401 32.6 28.6401 30.94 27.1301 29.94C25.4201 28.79 22.6 28.79 20.87 29.94Z" fill="#DB3042"/>
</svg>
